<?xml version="1.0" standalone="no"?>
<!DOCTYPE svg PUBLIC "-//W3C//DTD SVG 20010904//EN"
 "http://www.w3.org/TR/2001/REC-SVG-20010904/DTD/svg10.dtd">
<svg version="1.0" xmlns="http://www.w3.org/2000/svg"
 width="500.000000pt" height="500.000000pt" viewBox="0 0 500.000000 500.000000"
 preserveAspectRatio="xMidYMid meet">
<metadata>
Created by potrace 1.14, written by Peter Selinger 2001-2017
</metadata>
<g transform="translate(0.000000,500.000000) scale(0.100000,-0.100000)"
fill="#000000" stroke="none">
<path d="M256 4933 c-8 -38 -17 -81 -20 -98 -3 -16 -8 -41 -11 -55 -5 -25 -7
-35 -21 -120 -12 -76 -23 -165 -29 -250 -5 -57 -5 -412 -1 -465 2 -22 7 -83
11 -135 4 -52 9 -98 11 -101 2 -4 6 -27 9 -50 3 -24 8 -57 12 -74 3 -16 7 -39
8 -51 7 -55 57 -246 101 -383 7 -24 12 -47 9 -51 -2 -3 -7 -21 -10 -39 -3 -18
-10 -40 -15 -49 -9 -16 -99 -274 -104 -297 -1 -5 -5 -15 -8 -21 -4 -6 -9 -22
-12 -36 -2 -15 -9 -35 -15 -45 -5 -11 -28 -67 -50 -126 -22 -58 -58 -144 -80
-191 l-41 -84 0 -429 c0 -484 4 -523 65 -723 14 -47 27 -89 29 -95 11 -35 93
-211 108 -230 4 -5 36 -48 70 -95 144 -198 372 -388 600 -500 57 -28 111 -56
120 -61 10 -5 22 -9 28 -9 6 0 32 -10 58 -21 26 -12 61 -28 79 -35 48 -21
2451 -21 2512 1 22 8 41 12 41 10 0 -3 11 0 26 5 14 6 39 12 56 15 39 7 266
74 287 85 9 5 52 23 96 41 232 96 457 255 548 386 20 30 47 44 47 25 0 -14 43
-29 69 -25 14 2 25 4 26 6 0 1 13 19 28 39 15 20 27 43 27 51 0 8 7 31 15 50
8 20 18 53 21 74 3 21 8 41 9 44 2 3 7 46 10 95 4 49 11 113 16 143 5 32 9
842 9 1977 l0 1923 -37 -16 c-21 -8 -49 -20 -63 -25 -36 -15 -319 -114 -425
-149 -49 -16 -97 -33 -105 -36 -18 -8 -17 -7 -60 -17 -19 -5 -41 -12 -50 -17
-13 -7 -65 -22 -225 -64 -39 -11 -195 -53 -250 -69 -5 -1 -35 -8 -65 -15 -30
-6 -79 -20 -109 -30 -54 -17 -55 -17 -103 6 -26 13 -54 23 -61 23 -7 0 -17 4
-23 9 -5 5 -70 29 -144 54 -142 49 -297 88 -415 106 -67 10 -242 9 -295 -1
-62 -13 -109 -30 -133 -48 -23 -18 -44 -21 -169 -25 -134 -3 -160 -6 -248 -22
-97 -18 -270 -70 -287 -86 -3 -4 -14 -7 -23 -7 -10 0 -23 -7 -30 -15 -10 -12
-21 -9 -78 20 -36 19 -73 35 -82 35 -9 0 -20 4 -26 10 -5 5 -18 11 -29 13 -11
2 -30 9 -42 15 -13 7 -23 10 -23 6 0 -3 -6 -2 -12 4 -7 5 -69 28 -138 51 -69
23 -139 48 -157 56 -17 8 -34 15 -39 15 -7 0 -139 50 -199 75 -25 11 -66 25
-85 30 -3 1 -18 7 -35 14 -16 7 -59 24 -95 38 -36 13 -75 31 -87 39 -13 8 -23
12 -23 9 0 -3 -27 8 -60 25 -49 25 -72 30 -129 30 l-69 0 -16 -67z m4373
-1153 c9 0 23 -9 31 -19 7 -11 17 -18 22 -15 4 3 8 1 8 -5 0 -5 9 -8 20 -6 29
6 35 -14 11 -39 -12 -12 -21 -36 -21 -52 0 -33 9 -32 -120 -20 -124 12 -178
21 -189 32 -3 3 1 4 9 2 19 -4 50 21 107 84 23 25 44 43 47 40 3 -3 6 0 6 7 0
7 5 9 10 6 6 -3 10 -1 10 5 0 7 7 5 16 -4 8 -9 23 -16 33 -16z m-313 -48 c16
-10 34 -48 27 -55 -7 -7 -40 9 -66 31 -13 12 -15 17 -5 24 16 10 30 10 44 0z
m-2999 -824 c0 -33 15 -157 23 -190 7 -35 7 -37 -12 -27 -56 30 -76 157 -33
207 23 26 22 25 22 10z m2189 -103 c28 -13 69 -42 92 -66 88 -89 64 -182 -64
-249 -77 -41 -156 -41 -234 -2 -46 23 -59 36 -82 82 -14 30 -27 73 -28 95 -3
49 9 105 22 105 5 0 7 4 3 9 -3 5 4 12 15 16 11 3 20 11 20 16 0 5 3 8 8 7 4
0 14 1 22 5 8 3 22 8 30 11 30 11 146 -6 196 -29z"/>
</g>
</svg>
